PathFileType	4	(X/Y/Z)	../motion_lab\static\Static03\task.trc
DataRate	CameraRate	NumFrames	NumMarkers	Units	OrigDataRate	OrigDataStartFrame	OrigNumFrames
200.000000	200.000000	4	40	mm	200.000000	278	445
Frame#	Time	C7			RBAK			CLAV			STRN			T10			RASI			RPSI			LPSI			LASI			PE01			PE02			PE03			RTH1			RTH2			RTH3			RKNE			RMKNE			RTB1			RTB2			RTB3			RANK			RMMA			RHEE			RD5M			RTOE			LTH1			LTH2			LTH3			LKNE			LMKNE			LTB1			LTB2			LTB3			LANK			LMMA			LHEE			LTOE			LD5M			LGT			RGT			
		X1	Y1	Z1	X2	Y2	Z2	X3	Y3	Z3	X4	Y4	Z4	X5	Y5	Z5	X6	Y6	Z6	X7	Y7	Z7	X8	Y8	Z8	X9	Y9	Z9	X10	Y10	Z10	X11	Y11	Z11	X12	Y12	Z12	X13	Y13	Z13	X14	Y14	Z14	X15	Y15	Z15	X16	Y16	Z16	X17	Y17	Z17	X18	Y18	Z18	X19	Y19	Z19	X20	Y20	Z20	X21	Y21	Z21	X22	Y22	Z22	X23	Y23	Z23	X24	Y24	Z24	X25	Y25	Z25	X26	Y26	Z26	X27	Y27	Z27	X28	Y28	Z28	X29	Y29	Z29	X30	Y30	Z30	X31	Y31	Z31	X32	Y32	Z32	X33	Y33	Z33	X34	Y34	Z34	X35	Y35	Z35	X36	Y36	Z36	X37	Y37	Z37	X38	Y38	Z38	X39	Y39	Z39	X40	Y40	Z40	

279	1.39	-9.715181350708011	1354.109130859375	289.9822998046876	73.28694152832034	1257.3974609375	333.1235351562501	-6.072916984558109	1288.945678710938	152.5472564697266	-0.247984066605568	1108.113891601563	65.29596710205081	5.519667625427248	1054.863159179688	279.1309509277345	118.0869598388672	885.5062866210942	103.6627502441407	57.20411300659183	921.3991699218755	300.8118591308595	-28.12628746032716	918.3056030273442	298.535369873047	-104.6111526489258	885.144653320313	95.65690612792972	12.42887783050538	956.7020874023442	287.808319091797	36.30677032470705	898.923950195313	313.1524353027345	-14.39411640167237	896.8171386718755	310.1258544921876	165.4085845947266	598.3709106445315	210.1240386962892	154.3702239990235	519.4738769531252	202.8088531494142	158.6558532714844	570.2840576171877	168.8707885742188	144.3046875000001	452.7991638183596	208.2913208007814	32.76311492919923	446.530456542969	193.1046447753907	161.5276641845704	298.9024963378907	226.3348846435548	167.4170989990235	263.0526428222657	275.8572998046876	163.2938537597657	222.3702697753907	245.9901580810548	152.8890380859376	59.35650634765628	300.171356201172	79.22290039062503	76.89951324462893	267.3255310058595	103.2614974975587	27.9007911682129	333.8799133300782	200.2740325927736	13.96992492675782	199.6685943603517	155.1838836669922	30.43319511413576	151.4449615478516	-167.4061584472657	622.5491333007815	187.1080932617188	-158.3181762695313	570.768005371094	217.4086303710939	-164.4416961669922	597.6315917968752	143.4556274414063	-148.1210632324219	445.174987792969	190.5367431640626	-46.00340652465822	437.7153930664065	178.1591491699219	-183.4282531738282	299.8082275390626	267.2400817871095	-183.9472961425782	220.2283477783204	274.7950134277345	-183.2597961425782	246.874237060547	233.2976684570314	-185.7597198486329	70.55615997314456	252.4470825195314	-105.9615020751954	74.87491607666018	239.0380096435548	-148.7860565185547	35.93402481079103	303.9654846191407	-176.9281463623047	29.63377380371095	111.4364929199219	-223.8303985595704	18.34597396850587	162.5544433593751	-193.3601379394532	788.883178710938	177.4118041992188	202.8747711181642	796.031860351563	181.3148040771485	
280	1.395	-9.696249961853031	1354.164672851563	289.9796752929689	73.28294372558597	1257.38720703125	333.116668701172	-6.077282428741459	1288.929321289063	152.5595092773438	-0.2612296044826509	1108.123168945313	65.26667022705081	5.520619392395021	1054.853271484375	279.0933837890626	118.0850524902344	885.4812011718755	103.6262207031251	57.20601654052737	921.4400024414067	300.777801513672	-28.10564422607423	918.314086914063	298.5128173828126	-104.6354751586915	885.1323852539067	95.64174652099612	12.17938423156739	955.2210083007817	287.8931579589845	36.23330688476564	898.6022949218755	313.191375732422	-14.35279273986817	896.8515014648442	310.074920654297	165.4048767089844	598.3547363281252	210.1088256835939	154.3636169433594	519.489685058594	202.7939453125001	158.6550598144532	570.2677001953127	168.8544311523438	144.3081359863282	452.7930603027346	208.2750396728517	32.76722335815431	446.5327148437502	193.0868530273439	161.5522613525391	298.9056701660157	226.2622680664064	167.433090209961	263.101043701172	275.8226013183595	163.3042297363282	222.2595672607423	246.0107269287111	152.8972320556641	59.312126159668	300.1777648925782	79.23606109619143	76.91913604736331	267.3235473632814	103.5411376953126	27.55154037475587	333.8081054687501	200.2888336181642	13.98936080932618	199.6573181152345	155.1802368164063	30.43014144897462	151.4429779052735	-167.8259735107422	622.5375976562502	187.0125885009766	-158.3179473876954	570.7792968750002	217.4029846191407	-164.4444427490235	597.6470336914065	143.4520721435547	-148.2972869873047	445.1183166503909	190.4283752441407	-45.97411727905275	437.7452697753909	178.1174926757813	-183.4430084228516	299.8269348144532	267.2323303222657	-183.9498901367188	220.2429199218751	274.8023376464845	-183.2479400634766	246.893768310547	233.3042755126954	-185.7671813964844	70.551383972168	252.4574737548829	-105.9806671142579	74.84171295166018	239.0788116455079	-148.8000640869141	35.95742416381837	303.9784545898439	-176.9446563720704	29.63533020019533	111.4347610473633	-223.8203430175782	18.32177352905274	162.5440368652344	-193.3692321777345	788.8957519531255	177.4026336669922	202.8617553710939	796.0148315429692	181.2966918945313	
281	1.4	-9.711753845214847	1354.139404296875	289.9714965820314	73.26838684082034	1257.366821289063	333.0975341796876	-6.084656238555912	1288.924560546875	152.5526733398438	-0.2534018456935884	1108.133422851563	65.23232269287112	5.518897056579592	1054.84521484375	279.0586547851564	118.0621414184571	885.483032226563	103.567611694336	57.19817733764651	921.4387817382817	300.7503662109376	-28.11012840270998	918.3230590820317	298.4804992675782	-104.6263427734376	885.1359863281255	95.61342620849612	11.93493175506592	955.776733398438	287.5541992187501	36.22515869140626	898.6591186523442	313.1684570312501	-14.36590576171876	896.848266601563	310.0647583007814	165.4134521484376	598.3576660156252	210.0845184326173	154.3510894775391	519.4625244140627	202.7824249267579	158.6487274169922	570.2559204101565	168.8441467285157	144.2971191406251	452.7871704101565	208.2691497802736	32.7430763244629	446.527282714844	193.0852203369142	161.5517730712891	298.9397583007814	226.2684478759767	167.4234619140626	263.0755920410157	275.8381652832032	163.2758178710938	222.3553924560548	245.9801483154298	152.8927154541016	59.35127639770511	300.1663513183595	79.22521972656253	76.8891525268555	267.3167114257814	103.2964630126954	27.84999275207521	333.8684692382814	200.2903442382814	14.01151657104493	199.6515960693361	155.1803741455079	30.44139862060548	151.4388275146485	-167.3951416015626	622.4970703125002	187.1214599609376	-158.3133392333985	570.7817993164065	217.4095611572267	-164.5593261718751	597.6104125976565	143.4088897705079	-148.2984771728516	445.1221008300784	190.4322204589844	-45.99029541015626	437.7519836425784	178.1182250976563	-183.4256286621094	299.7958068847657	267.2321166992189	-183.9519653320313	220.238983154297	274.8018188476564	-183.2454681396485	246.9025878906251	233.3077697753907	-185.7714538574219	70.55926513671878	252.4515991210939	-105.9673309326172	74.86572265625003	239.0557250976564	-148.7903289794922	35.96267318725587	303.9721679687501	-176.9212493896485	29.63442993164064	111.429542541504	-223.6572265625001	18.08928108215333	162.2166442871094	-193.3802337646486	788.907348632813	177.3974304199219	202.8457336425782	796.0059204101567	181.2815551757813	
282	1.405	-9.722509384155277	1354.1376953125	289.9621887207032	73.25391387939456	1257.301879882813	333.0896301269532	-6.080483913421634	1288.919921875	152.5488281250001	-0.2702408730983735	1108.135620117188	65.20046997070315	5.517291069030763	1054.828735351563	279.021453857422	118.0270462036133	885.4860229492192	103.6047592163087	57.20332717895511	921.439819335938	300.706512451172	-28.10469055175783	918.331909179688	298.4594116210939	-104.6116638183594	885.145141601563	95.58115386962893	12.02883052825928	955.0292968750005	287.7844848632814	36.23609924316408	898.5944213867192	313.0750427246095	-14.36602497100831	896.854125976563	310.0345153808595	165.4053649902344	598.356628417969	210.0651702880861	154.3542480468751	519.4451293945315	202.7852783203126	158.6317138671876	570.2676391601565	168.8259735107422	144.2925567626954	452.7785949707034	208.2629547119142	32.74549102783205	446.5336608886721	193.0752410888673	161.5631103515626	298.8572692871095	226.2619628906251	167.3874969482422	263.0306091308595	275.8604431152345	163.2942352294922	222.3553009033204	245.9715576171876	152.8836669921876	59.35003662109378	300.1657714843751	79.22568511962893	76.9153747558594	267.3148498535157	103.3080978393555	27.88625717163087	333.8519897460939	200.2933654785157	14.01196575164796	199.6361541748048	155.1828155517579	30.44153213500978	151.4375610351563	-167.392807006836	622.5210571289065	187.1251525878907	-158.3177032470704	570.7256469726565	217.4103088378907	-164.4629516601563	597.6431884765627	143.4669494628907	-148.2999114990235	445.1335144042971	190.4382629394532	-46.05643844604494	437.6389160156252	178.2280273437501	-183.4542388916016	299.8003540039064	267.2419433593751	-183.9596862792969	220.2239074707032	274.8033142089845	-183.2564849853516	246.8878326416017	233.3067779541017	-185.7544250488282	70.54873657226565	252.442596435547	-105.9690780639649	74.88558197021487	239.0308227539064	-148.7930908203126	35.9762535095215	303.9772033691407	-176.9360656738282	29.63430786132814	111.4340896606446	-223.6553039550782	18.08679389953614	162.2131042480469	-193.3776397705079	788.9152221679692	177.3889923095704	202.8511657714845	795.988403320313	181.2483062744141	
